<svg width="217" height="147" viewBox="0 0 217 147" fill="none" xmlns="http://www.w3.org/2000/svg">
<path d="M99.5195 60.918V86.8945C99.5195 97.1159 98.3151 106.003 95.9062 113.555C93.5625 121.107 90.1771 127.357 85.75 132.305C81.388 137.253 76.1797 140.931 70.125 143.34C64.0703 145.749 57.3971 146.953 50.1055 146.953C44.2461 146.953 38.7773 146.204 33.6992 144.707C28.6211 143.145 24.0312 140.801 19.9297 137.676C15.8932 134.486 12.4102 130.514 9.48047 125.762C6.55078 121.009 4.30469 115.41 2.74219 108.965C1.17969 102.454 0.398438 95.0977 0.398438 86.8945V60.918C0.398438 50.6315 1.57031 41.7448 3.91406 34.2578C6.32292 26.7057 9.74089 20.4557 14.168 15.5078C18.5951 10.5599 23.8359 6.88151 29.8906 4.47266C35.9453 2.0638 42.6185 0.859375 49.9102 0.859375C55.7695 0.859375 61.2057 1.64062 66.2188 3.20312C71.2969 4.70052 75.8867 7.04427 79.9883 10.2344C84.0898 13.3594 87.5729 17.2982 90.4375 22.0508C93.3672 26.8034 95.6133 32.4349 97.1758 38.9453C98.7383 45.3906 99.5195 52.7148 99.5195 60.918ZM66.6094 90.8984V56.7188C66.6094 52.1615 66.349 48.1901 65.8281 44.8047C65.3724 41.4193 64.6562 38.5547 63.6797 36.2109C62.7682 33.8672 61.6289 31.9792 60.2617 30.5469C58.8945 29.0495 57.332 27.9753 55.5742 27.3242C53.8815 26.6081 51.9935 26.25 49.9102 26.25C47.306 26.25 44.9622 26.8034 42.8789 27.9102C40.8607 28.9518 39.1354 30.6445 37.7031 32.9883C36.2708 35.332 35.1641 38.457 34.3828 42.3633C33.6667 46.2695 33.3086 51.0547 33.3086 56.7188V90.8984C33.3086 95.5208 33.5365 99.5573 33.9922 103.008C34.513 106.393 35.2292 109.29 36.1406 111.699C37.1172 114.043 38.2891 115.964 39.6562 117.461C41.0234 118.893 42.5859 119.935 44.3438 120.586C46.1016 121.237 48.0221 121.562 50.1055 121.562C52.6445 121.562 54.9232 121.042 56.9414 120C58.9596 118.958 60.6849 117.266 62.1172 114.922C63.6146 112.513 64.7214 109.355 65.4375 105.449C66.2188 101.478 66.6094 96.6276 66.6094 90.8984ZM146.785 60.1367H162.801C166.902 60.1367 170.255 59.4206 172.859 57.9883C175.529 56.4909 177.514 54.4076 178.816 51.7383C180.118 49.0039 180.77 45.7812 180.77 42.0703C180.77 39.2057 180.151 36.569 178.914 34.1602C177.742 31.7513 175.919 29.8307 173.445 28.3984C170.971 26.901 167.814 26.1523 163.973 26.1523C161.368 26.1523 158.829 26.7057 156.355 27.8125C153.882 28.8542 151.831 30.3516 150.203 32.3047C148.641 34.2578 147.859 36.6341 147.859 39.4336H114.852C114.852 31.3607 117.065 24.4596 121.492 18.7305C125.984 12.9362 131.876 8.50911 139.168 5.44922C146.525 2.32422 154.435 0.761719 162.898 0.761719C172.99 0.761719 181.844 2.32422 189.461 5.44922C197.078 8.50911 203.003 13.0664 207.234 19.1211C211.531 25.1107 213.68 32.5326 213.68 41.3867C213.68 46.2695 212.54 50.8594 210.262 55.1562C207.983 59.4531 204.793 63.2292 200.691 66.4844C196.59 69.7396 191.772 72.3112 186.238 74.1992C180.77 76.0221 174.78 76.9336 168.27 76.9336H146.785V60.1367ZM146.785 84.6484V68.2422H168.27C175.366 68.2422 181.844 69.056 187.703 70.6836C193.562 72.2461 198.608 74.5898 202.84 77.7148C207.072 80.8398 210.327 84.7135 212.605 89.3359C214.884 93.8932 216.023 99.1341 216.023 105.059C216.023 111.699 214.689 117.624 212.02 122.832C209.35 128.04 205.607 132.435 200.789 136.016C195.971 139.596 190.34 142.331 183.895 144.219C177.449 146.042 170.451 146.953 162.898 146.953C156.974 146.953 151.049 146.172 145.125 144.609C139.201 142.982 133.797 140.508 128.914 137.188C124.031 133.802 120.092 129.505 117.098 124.297C114.168 119.023 112.703 112.741 112.703 105.449H145.711C145.711 108.444 146.525 111.178 148.152 113.652C149.845 116.061 152.091 117.982 154.891 119.414C157.69 120.846 160.717 121.562 163.973 121.562C168.009 121.562 171.427 120.814 174.227 119.316C177.091 117.754 179.272 115.671 180.77 113.066C182.267 110.462 183.016 107.565 183.016 104.375C183.016 99.5573 182.202 95.7161 180.574 92.8516C179.012 89.987 176.701 87.9036 173.641 86.6016C170.646 85.2995 167.033 84.6484 162.801 84.6484H146.785Z" fill="#616161" fill-opacity="0.15"/>
</svg>
