<svg width="219" height="147" viewBox="0 0 219 147" fill="none" xmlns="http://www.w3.org/2000/svg">
<path d="M99.5195 60.918V86.8945C99.5195 97.1159 98.3151 106.003 95.9062 113.555C93.5625 121.107 90.1771 127.357 85.75 132.305C81.388 137.253 76.1797 140.931 70.125 143.34C64.0703 145.749 57.3971 146.953 50.1055 146.953C44.2461 146.953 38.7773 146.204 33.6992 144.707C28.6211 143.145 24.0312 140.801 19.9297 137.676C15.8932 134.486 12.4102 130.514 9.48047 125.762C6.55078 121.009 4.30469 115.41 2.74219 108.965C1.17969 102.454 0.398438 95.0977 0.398438 86.8945V60.918C0.398438 50.6315 1.57031 41.7448 3.91406 34.2578C6.32292 26.7057 9.74089 20.4557 14.168 15.5078C18.5951 10.5599 23.8359 6.88151 29.8906 4.47266C35.9453 2.0638 42.6185 0.859375 49.9102 0.859375C55.7695 0.859375 61.2057 1.64062 66.2188 3.20312C71.2969 4.70052 75.8867 7.04427 79.9883 10.2344C84.0898 13.3594 87.5729 17.2982 90.4375 22.0508C93.3672 26.8034 95.6133 32.4349 97.1758 38.9453C98.7383 45.3906 99.5195 52.7148 99.5195 60.918ZM66.6094 90.8984V56.7188C66.6094 52.1615 66.349 48.1901 65.8281 44.8047C65.3724 41.4193 64.6562 38.5547 63.6797 36.2109C62.7682 33.8672 61.6289 31.9792 60.2617 30.5469C58.8945 29.0495 57.332 27.9753 55.5742 27.3242C53.8815 26.6081 51.9935 26.25 49.9102 26.25C47.306 26.25 44.9622 26.8034 42.8789 27.9102C40.8607 28.9518 39.1354 30.6445 37.7031 32.9883C36.2708 35.332 35.1641 38.457 34.3828 42.3633C33.6667 46.2695 33.3086 51.0547 33.3086 56.7188V90.8984C33.3086 95.5208 33.5365 99.5573 33.9922 103.008C34.513 106.393 35.2292 109.29 36.1406 111.699C37.1172 114.043 38.2891 115.964 39.6562 117.461C41.0234 118.893 42.5859 119.935 44.3438 120.586C46.1016 121.237 48.0221 121.562 50.1055 121.562C52.6445 121.562 54.9232 121.042 56.9414 120C58.9596 118.958 60.6849 117.266 62.1172 114.922C63.6146 112.513 64.7214 109.355 65.4375 105.449C66.2188 101.478 66.6094 96.6276 66.6094 90.8984ZM218.074 89.4336V114.824H115.73L113.777 94.707L170.906 2.8125H196.883L168.66 49.0039L145.223 89.4336H218.074ZM203.719 2.8125V145H170.809V2.8125H203.719Z" fill="#616161" fill-opacity="0.15"/>
</svg>
