<svg width="216" height="147" viewBox="0 0 216 147" fill="none" xmlns="http://www.w3.org/2000/svg">
<path d="M99.5195 60.918V86.8945C99.5195 97.1159 98.3151 106.003 95.9062 113.555C93.5625 121.107 90.1771 127.357 85.75 132.305C81.388 137.253 76.1797 140.931 70.125 143.34C64.0703 145.749 57.3971 146.953 50.1055 146.953C44.2461 146.953 38.7773 146.204 33.6992 144.707C28.6211 143.145 24.0312 140.801 19.9297 137.676C15.8932 134.486 12.4102 130.514 9.48047 125.762C6.55078 121.009 4.30469 115.41 2.74219 108.965C1.17969 102.454 0.398438 95.0977 0.398438 86.8945V60.918C0.398438 50.6315 1.57031 41.7448 3.91406 34.2578C6.32292 26.7057 9.74089 20.4557 14.168 15.5078C18.5951 10.5599 23.8359 6.88151 29.8906 4.47266C35.9453 2.0638 42.6185 0.859375 49.9102 0.859375C55.7695 0.859375 61.2057 1.64062 66.2188 3.20312C71.2969 4.70052 75.8867 7.04427 79.9883 10.2344C84.0898 13.3594 87.5729 17.2982 90.4375 22.0508C93.3672 26.8034 95.6133 32.4349 97.1758 38.9453C98.7383 45.3906 99.5195 52.7148 99.5195 60.918ZM66.6094 90.8984V56.7188C66.6094 52.1615 66.349 48.1901 65.8281 44.8047C65.3724 41.4193 64.6562 38.5547 63.6797 36.2109C62.7682 33.8672 61.6289 31.9792 60.2617 30.5469C58.8945 29.0495 57.332 27.9753 55.5742 27.3242C53.8815 26.6081 51.9935 26.25 49.9102 26.25C47.306 26.25 44.9622 26.8034 42.8789 27.9102C40.8607 28.9518 39.1354 30.6445 37.7031 32.9883C36.2708 35.332 35.1641 38.457 34.3828 42.3633C33.6667 46.2695 33.3086 51.0547 33.3086 56.7188V90.8984C33.3086 95.5208 33.5365 99.5573 33.9922 103.008C34.513 106.393 35.2292 109.29 36.1406 111.699C37.1172 114.043 38.2891 115.964 39.6562 117.461C41.0234 118.893 42.5859 119.935 44.3438 120.586C46.1016 121.237 48.0221 121.562 50.1055 121.562C52.6445 121.562 54.9232 121.042 56.9414 120C58.9596 118.958 60.6849 117.266 62.1172 114.922C63.6146 112.513 64.7214 109.355 65.4375 105.449C66.2188 101.478 66.6094 96.6276 66.6094 90.8984ZM144.93 81.6211L118.758 75.4688L127.352 2.8125H210.457V28.3984H154.207L150.984 56.6211C152.547 55.7096 155.184 54.6354 158.895 53.3984C162.671 52.0964 166.837 51.4453 171.395 51.4453C178.426 51.4453 184.643 52.5195 190.047 54.668C195.516 56.7513 200.138 59.8438 203.914 63.9453C207.69 67.9818 210.522 72.9622 212.41 78.8867C214.363 84.8112 215.34 91.582 215.34 99.1992C215.34 105.319 214.331 111.243 212.312 116.973C210.359 122.637 207.332 127.747 203.23 132.305C199.194 136.797 194.083 140.378 187.898 143.047C181.714 145.651 174.389 146.953 165.926 146.953C159.611 146.953 153.458 145.977 147.469 144.023C141.479 142.07 136.076 139.271 131.258 135.625C126.505 131.914 122.729 127.454 119.93 122.246C117.195 116.973 115.861 111.081 115.926 104.57H149.031C149.227 108.021 150.04 111.016 151.473 113.555C152.905 116.094 154.826 118.079 157.234 119.512C159.708 120.879 162.54 121.562 165.73 121.562C168.986 121.562 171.688 120.911 173.836 119.609C175.984 118.307 177.677 116.517 178.914 114.238C180.151 111.96 181.03 109.355 181.551 106.426C182.072 103.431 182.332 100.273 182.332 96.9531C182.332 93.4375 181.941 90.2799 181.16 87.4805C180.444 84.681 179.272 82.3047 177.645 80.3516C176.017 78.3333 173.901 76.8034 171.297 75.7617C168.758 74.7201 165.698 74.1992 162.117 74.1992C157.365 74.1992 153.621 75.013 150.887 76.6406C148.152 78.2682 146.167 79.9284 144.93 81.6211Z" fill="#616161" fill-opacity="0.15"/>
</svg>
