<svg width="214" height="27" viewBox="0 0 214 27" fill="none" xmlns="http://www.w3.org/2000/svg">
<path d="M0.24 26H4.92V1.232H0.24V26ZM10.6645 26H15.2725V13.508C16.4605 12.248 17.7925 11.6 19.1245 11.6C20.9965 11.6 22.2925 12.968 22.2925 14.876V26H26.9365V14.048C26.9365 10.232 24.2725 7.568 20.5285 7.568C18.6925 7.568 16.8925 8.252 15.2725 9.548V8H10.6645V26ZM45.5733 26H50.2893V5.084H57.7773V1.232H38.0493V5.084H45.5733V26ZM61.2192 26H65.8272V13.508C67.0152 12.248 68.3472 11.6 69.6792 11.6C71.5512 11.6 72.8472 12.968 72.8472 14.876V26H77.4912V14.048C77.4912 10.232 74.8272 7.568 71.0832 7.568C69.2472 7.568 67.4472 8.252 65.8272 9.548V0.115999H61.2192V26ZM81.1241 16.856C81.1241 22.472 84.9401 26.432 90.3761 26.432C92.3921 26.432 94.4441 25.964 96.4961 25.028V21.176C94.6241 22.256 92.7881 22.868 91.1321 22.868C88.1081 22.868 85.9481 20.996 85.6601 18.26H97.8641C97.9361 17.648 97.9361 17.072 97.9361 16.568C97.9361 11.276 94.7321 7.568 90.0161 7.568C84.8681 7.568 81.1241 11.42 81.1241 16.856ZM85.6601 15.272C85.8761 12.788 87.6041 11.132 89.8361 11.132C91.8881 11.132 93.3641 12.824 93.5081 15.272H85.6601ZM111.334 26H115.762V8.756L128.11 26H132.214V1.232H127.786V18.476L115.402 1.232H111.334V26ZM136.706 16.856C136.706 22.472 140.522 26.432 145.958 26.432C147.974 26.432 150.026 25.964 152.078 25.028V21.176C150.206 22.256 148.37 22.868 146.714 22.868C143.69 22.868 141.53 20.996 141.242 18.26H153.446C153.518 17.648 153.518 17.072 153.518 16.568C153.518 11.276 150.314 7.568 145.598 7.568C140.45 7.568 136.706 11.42 136.706 16.856ZM141.242 15.272C141.458 12.788 143.186 11.132 145.418 11.132C147.47 11.132 148.946 12.824 149.09 15.272H141.242ZM182.727 8H178.119L174.483 20.24L170.847 8H166.671L163.035 20.24L159.399 8H154.791L160.983 26H165.123L168.759 13.76L172.431 26H176.571L182.727 8ZM184.953 25.208C186.789 26 188.625 26.432 190.461 26.432C194.637 26.432 197.517 24.092 197.517 20.744C197.517 14.3 189.165 15.92 189.165 13.04C189.165 11.96 190.245 11.204 191.757 11.204C193.341 11.204 194.997 11.672 196.545 12.608V8.612C194.889 7.928 193.125 7.568 191.433 7.568C187.401 7.568 184.557 9.836 184.557 13.112C184.557 19.412 192.909 17.792 192.909 20.816C192.909 21.968 191.793 22.796 190.173 22.796C188.445 22.796 186.681 22.22 184.953 21.14V25.208ZM208.365 10.34C208.365 11.924 209.517 13.076 211.137 13.076C212.757 13.076 213.909 11.924 213.909 10.34C213.909 8.72 212.757 7.568 211.137 7.568C209.517 7.568 208.365 8.72 208.365 10.34ZM208.365 23.66C208.365 25.28 209.517 26.432 211.137 26.432C212.757 26.432 213.909 25.28 213.909 23.66C213.909 22.04 212.757 20.924 211.137 20.924C209.517 20.924 208.365 22.04 208.365 23.66Z" fill="#14566A"/>
</svg>
