<svg width="256" height="56" viewBox="0 0 256 56" fill="none" xmlns="http://www.w3.org/2000/svg">
<path d="M28 40.3721C34.8329 40.3721 40.3721 34.8329 40.3721 28C40.3721 21.1671 34.8329 15.6279 28 15.6279C21.1671 15.6279 15.6279 21.1671 15.6279 28C15.6279 34.8329 21.1671 40.3721 28 40.3721Z" fill="url(#paint0_radial_1229_12274)"/>
<path d="M54.0625 29.9407C52.9932 29.9407 52.1188 29.0588 52.1188 27.9661C52.1188 16.1694 43.8406 6.07265 32.436 3.96382C31.8384 3.85519 31.2282 4.01495 30.7627 4.41115C30.3035 4.80096 30.0519 5.35054 30.0519 5.96401C30.0519 6.94813 30.7313 7.78527 31.6686 7.95781C39.2297 9.33813 45.4195 15.0959 47.4324 22.6365C47.8979 24.3875 47.5456 26.2215 46.4574 27.6657C45.3629 29.1163 43.7085 29.9471 41.9157 29.9471C39.3366 29.9471 37.0783 28.2025 36.4178 25.7039C35.4114 21.8952 31.9957 19.2432 28.1145 19.2432C23.3715 19.2432 19.5154 23.1605 19.5154 27.9788C19.5154 29.0716 18.6473 29.9535 17.5717 29.9535C16.5023 29.9535 15.6279 29.0716 15.6279 27.9788C15.6279 20.9878 21.2264 15.3003 28.1082 15.3003C33.7444 15.3003 38.7076 19.1601 40.167 24.6878C40.3745 25.4674 41.0916 26.0106 41.9157 26.0106C42.4881 26.0106 43.0228 25.7422 43.3751 25.2757C43.7211 24.8156 43.8343 24.2341 43.6896 23.6781C42.0667 17.6073 37.0846 12.9615 30.9892 11.8495C28.1962 11.3383 26.1707 8.87163 26.1707 5.97679C26.1707 4.20027 26.9381 2.53238 28.278 1.39489C29.6305 0.251017 31.3981 -0.221871 33.1342 0.0976475C46.3819 2.53877 56 14.2651 56 27.9725C56 29.0588 55.1319 29.9407 54.0625 29.9407Z" fill="url(#paint1_radial_1229_12274)"/>
<path d="M28.0287 55.9999C12.5703 55.9935 0 43.2413 0 27.5656C0 25.9051 0.139037 24.2445 0.417112 22.6289C1.97812 13.6017 7.79242 5.85041 15.9703 1.88821C17.563 1.11885 19.402 1.10602 21.0136 1.85615C22.6378 2.6191 23.8386 4.06165 24.3 5.81194C25.0267 8.56241 23.6869 11.4539 21.1084 12.6849C16.3432 14.9673 12.9621 19.4617 12.0583 24.7062C11.8624 25.8474 11.7866 27.0078 11.8245 28.149C12.1152 36.7402 18.9786 43.6965 27.4409 43.9979C28.5785 44.0363 29.7224 43.9594 30.841 43.7607C31.2897 43.6837 31.7511 43.5811 32.2188 43.4529C37.2873 42.0809 41.4016 38.279 43.228 33.2909C44.2266 30.5597 46.9883 28.944 49.8007 29.4505C51.5323 29.7583 53.0302 30.8226 53.9086 32.3741C54.7808 33.9128 54.9388 35.7401 54.3384 37.4006C51.1847 46.0687 44.0622 52.6596 35.2839 55.0318C34.5319 55.2434 33.7229 55.4229 32.9013 55.5703C31.3087 55.8588 29.6655 55.9999 28.0287 55.9999ZM18.5173 5.26057C18.2581 5.26057 17.9611 5.31186 17.6514 5.46573C10.6111 8.87015 5.60574 15.5444 4.26592 23.3085C4.02577 24.6997 3.90569 26.1295 3.90569 27.5656C3.90569 41.0551 14.7253 52.0377 28.0287 52.0441C29.4443 52.0441 30.86 51.9223 32.2251 51.6786C32.9266 51.5504 33.6155 51.3966 34.2664 51.217C41.8376 49.1654 47.9679 43.4914 50.6792 36.035C50.9509 35.2785 50.7044 34.6566 50.5338 34.3552C50.2304 33.8231 49.7248 33.4576 49.1308 33.355C48.1765 33.1819 47.2348 33.7397 46.8935 34.6758C44.6247 40.8691 39.5246 45.5815 33.2426 47.2805C32.6612 47.4408 32.0797 47.569 31.5173 47.6652C30.1332 47.9088 28.7176 48.0114 27.3145 47.9601C16.8109 47.5882 8.29801 38.9521 7.93778 28.2965C7.88722 26.8796 7.98201 25.4435 8.22849 24.033C9.34079 17.5126 13.5435 11.9348 19.4526 9.10737C20.3184 8.69063 20.7735 7.74176 20.5396 6.83776C20.3753 6.22227 19.9582 5.72219 19.3894 5.45291C19.1935 5.36315 18.8838 5.26057 18.5173 5.26057Z" fill="#27B0D9"/>
<path d="M120.859 40.8181V30.5214C120.859 28.0406 119.601 26.4051 117.184 26.4051C114.768 26.4051 113.559 28.0406 113.559 30.5214V40.8181C113.559 42.9682 112.111 44.279 110.175 44.279C108.195 44.279 106.791 42.9682 106.791 40.8181V24.5308C106.791 22.3808 108.195 21.0699 110.175 21.0699C111.769 21.0699 113.028 21.9581 113.414 23.4588H113.464C114.622 22.0071 116.653 20.8372 119.651 20.8372C124.826 20.8372 127.628 24.347 127.628 29.2596V40.8181C127.628 42.9682 126.224 44.279 124.244 44.279C122.308 44.2851 120.859 42.9743 120.859 40.8181Z" fill="url(#paint2_radial_1229_12274)"/>
<path d="M133.624 37.8924C133.134 36.5034 132.837 34.878 132.837 32.5611C132.837 30.1957 133.082 28.5763 133.579 27.1874C135.012 23.1116 138.806 20.8372 143.884 20.8372C149.163 20.8372 152.809 23.154 154.189 27.1388C154.731 28.7158 154.977 30.2927 154.977 32.3731C154.977 33.6225 154.138 34.508 152.712 34.508H140.038C139.838 34.508 139.742 34.599 139.742 34.787C139.742 35.248 139.838 35.6664 139.987 36.0849C140.626 37.9833 142.452 39.0023 144.917 39.0023C146.543 39.0023 148.124 38.4928 149.401 37.8438C150.24 37.3829 151.079 37.1463 151.77 37.1463C153.202 37.1463 154.286 38.1653 154.286 39.5542C154.286 40.5307 153.796 41.3131 152.905 41.8711C150.634 43.3571 147.975 44.279 144.278 44.279C138.754 44.2911 135.005 41.9257 133.624 37.8924ZM147.879 30.2017C148.079 30.2017 148.175 30.1108 148.175 29.9228C148.175 29.1828 148.079 28.7158 147.93 28.2548C147.388 26.6779 145.911 25.7985 143.936 25.7985C141.961 25.7985 140.535 26.6779 139.993 28.2548C139.845 28.7158 139.748 29.1828 139.748 29.9228C139.748 30.1108 139.845 30.2017 140.045 30.2017H147.879Z" fill="url(#paint3_radial_1229_12274)"/>
<path d="M210.976 41.0358C210.976 42.7514 209.487 44.0487 207.615 44.0487C206.466 44.0487 205.504 43.6304 204.876 42.7999L204.298 42.0118H204.248C203.048 43.4485 200.554 44.279 197.67 44.279C191.721 44.279 188.837 41.6845 188.837 37.4229C188.837 32.4641 192.676 30.1969 198.437 30.1969H202.614C202.809 30.1969 202.903 30.106 202.903 29.9181V29.6877C202.903 27.6024 201.364 26.3536 198.154 26.3536C196.715 26.3536 195.276 26.6809 194.409 27.0022C193.831 27.1902 193.304 27.3235 192.826 27.3235C191.243 27.3235 190.137 26.3051 190.137 24.729C190.137 23.753 190.615 22.7346 191.865 22.1344C193.404 21.3949 195.754 20.8372 198.971 20.8372C205.982 20.8372 209.337 24.2622 209.337 29.8696V35.9801C209.337 37.047 209.431 37.5562 209.77 38.1139L210.392 39.1323C210.782 39.7386 210.976 40.3872 210.976 41.0358ZM202.91 36.3135V34.7859C202.91 34.604 202.815 34.507 202.621 34.507H199.354C196.52 34.507 195.226 35.3436 195.226 37.0531C195.226 38.6292 196.376 39.4173 198.587 39.4173C201.421 39.4173 202.91 38.3928 202.91 36.3135Z" fill="url(#paint4_radial_1229_12274)"/>
<path d="M214.883 40.812V24.5246C214.883 22.3746 216.292 21.0638 218.278 21.0638C219.877 21.0638 221.185 21.952 221.578 23.5936V23.6426H221.629C222.695 22.1419 224.878 20.8372 227.543 20.8372C228.609 20.8372 229.383 21.027 230.018 21.3027C231.23 21.8662 231.814 22.8463 231.814 23.9734C231.814 25.8906 230.456 27.2933 228.469 27.2933C227.987 27.2933 227.498 27.2014 227.016 27.0605C226.534 26.9197 225.804 26.8278 225.271 26.8278C222.752 26.8278 221.686 28.5613 221.686 31.5995V40.8182C221.686 42.9682 220.233 44.279 218.291 44.279C216.292 44.279 214.883 42.9682 214.883 40.812Z" fill="url(#paint5_radial_1229_12274)"/>
<path d="M235.159 37.8924C234.698 36.5034 234.418 34.878 234.418 32.5611C234.418 30.1957 234.649 28.5763 235.117 27.1874C236.465 23.1116 240.036 20.8372 244.816 20.8372C249.783 20.8372 253.215 23.154 254.514 27.1388C255.025 28.7158 255.255 30.2927 255.255 32.3731C255.255 33.6225 254.466 34.508 253.124 34.508H241.196C241.008 34.508 240.917 34.599 240.917 34.787C240.917 35.248 241.008 35.6664 241.147 36.0849C241.749 37.9833 243.467 39.0023 245.787 39.0023C247.318 39.0023 248.806 38.4928 250.008 37.8438C250.798 37.3829 251.587 37.1463 252.237 37.1463C253.585 37.1463 254.606 38.1653 254.606 39.5542C254.606 40.5307 254.144 41.3131 253.306 41.8711C251.168 43.3571 248.666 44.279 245.186 44.279C239.987 44.2911 236.459 41.9257 235.159 37.8924ZM248.569 30.2017C248.757 30.2017 248.848 30.1108 248.848 29.9228C248.848 29.1828 248.757 28.7158 248.617 28.2548C248.107 26.6779 246.716 25.7985 244.858 25.7985C243 25.7985 241.657 26.6779 241.147 28.2548C241.008 28.7158 240.917 29.1828 240.917 29.9228C240.917 30.1108 241.008 30.2017 241.196 30.2017H248.569Z" fill="url(#paint6_radial_1229_12274)"/>
<path d="M102.884 27.3489C102.884 36.6995 95.304 44.2791 85.9534 44.2791C76.6029 44.2791 69.0232 36.6995 69.0232 27.3489C69.0232 17.9984 76.6029 10.4187 85.9534 10.4187C95.304 10.4187 102.884 17.9984 102.884 27.3489ZM85.9534 17.7849C80.6721 17.7849 76.3893 22.0676 76.3893 27.3489C76.3893 32.6302 80.6721 36.913 85.9534 36.913C91.2347 36.913 95.5175 32.6302 95.5175 27.3489C95.5175 22.0676 91.2347 17.7849 85.9534 17.7849Z" fill="url(#paint7_radial_1229_12274)"/>
<path d="M175.347 36.9103C172.484 36.9103 169.926 35.5785 168.217 33.4991C166.868 31.8343 166.038 29.6796 166.038 27.3489C166.038 25.012 166.868 22.8635 168.217 21.1988C169.926 19.1068 172.484 17.7687 175.347 17.7687C177.258 17.7687 179.028 18.3593 180.499 19.3832C181.873 20.3381 183.722 20.1245 184.992 19.0314C186.659 17.5928 186.665 14.8601 184.895 13.5597C182.202 11.5809 178.906 10.4187 175.353 10.4187C170.293 10.4187 165.757 12.7745 162.754 16.4746C160.343 19.4021 158.884 23.2153 158.884 27.3489C158.884 31.4825 160.343 35.2958 162.754 38.2232C165.757 41.9297 170.299 44.2791 175.353 44.2791C178.906 44.2791 182.196 43.117 184.888 41.1444C186.665 39.8377 186.659 37.0987 184.986 35.6538C183.722 34.5608 181.879 34.3472 180.505 35.2958C179.028 36.3197 177.258 36.9103 175.347 36.9103Z" fill="url(#paint8_radial_1229_12274)"/>
<defs>
<radialGradient id="paint0_radial_1229_12274" cx="0" cy="0" r="1" gradientUnits="userSpaceOnUse" gradientTransform="translate(27.9282 27.7108) scale(144.423)">
<stop stop-color="#F8A820"/>
<stop offset="1" stop-color="#F1647B"/>
</radialGradient>
<radialGradient id="paint1_radial_1229_12274" cx="0" cy="0" r="1" gradientUnits="userSpaceOnUse" gradientTransform="translate(28.0293 27.6756) scale(145.905 148.223)">
<stop stop-color="#F8A820"/>
<stop offset="1" stop-color="#F1647B"/>
</radialGradient>
<radialGradient id="paint2_radial_1229_12274" cx="0" cy="0" r="1" gradientUnits="userSpaceOnUse" gradientTransform="translate(8.00942 40.8805) scale(245.402 237.627)">
<stop stop-color="#F8A820"/>
<stop offset="1" stop-color="#F1647B"/>
</radialGradient>
<radialGradient id="paint3_radial_1229_12274" cx="0" cy="0" r="1" gradientUnits="userSpaceOnUse" gradientTransform="translate(5.99066 40.6895) scale(250.329 235.29)">
<stop stop-color="#F8A820"/>
<stop offset="1" stop-color="#F1647B"/>
</radialGradient>
<radialGradient id="paint4_radial_1229_12274" cx="0" cy="0" r="1" gradientUnits="userSpaceOnUse" gradientTransform="translate(9.53682 40.6793) scale(243.722 235.169)">
<stop stop-color="#F8A820"/>
<stop offset="1" stop-color="#F1647B"/>
</radialGradient>
<radialGradient id="paint5_radial_1229_12274" cx="0" cy="0" r="1" gradientUnits="userSpaceOnUse" gradientTransform="translate(7.15417 40.8744) scale(246.173 237.627)">
<stop stop-color="#F8A820"/>
<stop offset="1" stop-color="#F1647B"/>
</radialGradient>
<radialGradient id="paint6_radial_1229_12274" cx="0" cy="0" r="1" gradientUnits="userSpaceOnUse" gradientTransform="translate(17.6918 40.6895) scale(235.603 235.29)">
<stop stop-color="#F8A820"/>
<stop offset="1" stop-color="#F1647B"/>
</radialGradient>
<radialGradient id="paint7_radial_1229_12274" cx="0" cy="0" r="1" gradientUnits="userSpaceOnUse" gradientTransform="translate(9.38672 40.5501) scale(243.616)">
<stop stop-color="#F8A820"/>
<stop offset="1" stop-color="#F1647B"/>
</radialGradient>
<radialGradient id="paint8_radial_1229_12274" cx="0" cy="0" r="1" gradientUnits="userSpaceOnUse" gradientTransform="translate(14.2293 40.555) scale(236.814 243.706)">
<stop stop-color="#F8A820"/>
<stop offset="1" stop-color="#F1647B"/>
</radialGradient>
</defs>
</svg>
