<svg width="91" height="50" viewBox="0 0 91 50" fill="none" xmlns="http://www.w3.org/2000/svg">
<g clip-path="url(#clip0_1407_20235)">
<path d="M64.7249 14.9812C62.9976 4.79383 53.2132 -1.8887 43.4831 0.480924C41.2313 1.03119 39.3654 2.35481 37.0789 3.6933C37.6431 0.758537 35.9159 0.976661 34.2233 1.03119C32.4168 1.08572 30.6005 1.11051 28.794 1.01632C27.532 0.951874 27.0767 1.3088 27.0816 2.64729C27.1212 17.9011 27.1262 33.1549 27.0767 48.4087C27.0717 49.8216 27.6359 50.0199 28.8089 49.9852C31.0311 49.9207 33.2582 49.8811 35.4754 49.9951C36.9453 50.0744 37.4996 49.6927 37.4402 48.1063C37.3165 44.7304 37.4056 41.3445 37.4056 37.9636V34.2951C38.3608 35.0338 38.8705 35.4254 39.3704 35.822C42.7507 38.494 47.1504 39.2327 50.6792 38.1916C63.5965 34.3943 66.2393 23.9045 64.7249 14.9812ZM54.8068 19.7899C54.4653 24.8811 50.3476 28.5247 45.4083 28.1777C40.4443 27.8307 36.7424 23.5624 37.1284 18.6348C37.4699 14.1831 40.8106 10.4403 44.661 10.7476C48.0512 9.12161 50.7237 11.1839 53.0795 13.7815C54.5692 15.4323 54.9553 17.6037 54.8068 19.7899Z" fill="#28328C"/>
<path d="M20.2023 19.1403C20.2271 24.7124 15.7728 29.1889 10.1754 29.2136C4.45414 29.2335 -0.0297924 24.752 -9.75029e-05 19.0362C0.0295974 13.5732 4.6917 8.96281 10.1506 8.99751C15.6442 9.03717 20.1776 13.6128 20.2023 19.1403Z" fill="#14BEF0"/>
<path d="M90.9999 19.2644C90.9554 24.8861 86.5556 29.2188 80.8987 29.2139C75.3853 29.204 70.8024 24.6432 70.8074 19.1603C70.8123 13.6924 75.4002 9.06217 80.869 8.99773C86.4269 8.93328 91.0395 13.613 90.9999 19.2644Z" fill="#14BEF0"/>
</g>
<defs>
<clipPath id="clip0_1407_20235">
<rect width="91" height="50" fill="white"/>
</clipPath>
</defs>
</svg>
