<svg width="131" height="20" viewBox="0 0 131 20" fill="none" xmlns="http://www.w3.org/2000/svg">
<g clip-path="url(#clip0_1229_9783)">
<path d="M4.82727 13.408C4.79038 12.2674 3.75931 11.6154 2.93019 10.8291C2.05057 9.99613 1.14378 9.19232 0.299119 8.32428C-0.205735 7.80657 -0.0581627 7.39979 0.6564 7.27718C2.17485 7.01832 3.69718 6.67188 5.22727 6.61155C6.64669 6.55511 7.3496 5.78049 7.89329 4.68473C8.58261 3.30092 9.21756 1.88792 9.91465 0.506061C10.2312 -0.122588 10.6778 -0.112857 10.9981 0.509954C11.6797 1.83148 12.3477 3.16274 12.9671 4.51346C13.5632 5.81552 14.4214 6.49672 15.9554 6.64074C17.3418 6.77114 18.7729 6.84705 20.1379 7.27523C20.9069 7.51657 21.0525 7.82798 20.4894 8.42354C19.9185 9.02689 19.3049 9.59131 18.703 10.1655C17.8952 10.9362 17.0447 11.6563 16.3943 12.5866C16.1477 12.9389 16.0506 13.2854 16.1146 13.6513C16.4234 15.4165 16.7554 17.176 17.1108 18.9315C17.1807 19.2741 17.1651 19.5115 16.9399 19.8073C16.6214 20.2258 16.4156 19.8385 16.2253 19.7451C14.6137 18.951 13.0059 18.1452 11.4214 17.2986C10.8312 16.9833 10.3147 16.9463 9.70883 17.2441C8.15543 18.007 6.61368 18.7855 5.09912 19.6244C4.81951 19.7801 4.46611 20.1947 4.00009 19.8288C3.51077 19.4453 3.88747 19.097 3.95543 18.7135C4.25252 17.0144 4.51854 15.3056 4.82727 13.408Z" fill="#FDCF12"/>
<path d="M65.53 0.00195312C65.798 0.140139 66.0018 0.39121 66.1591 0.706507C66.9145 2.21877 67.7358 3.69989 68.4232 5.24135C68.8562 6.21059 69.6213 6.46361 70.528 6.56676C72.1183 6.74777 73.7067 6.9171 75.2659 7.29857C76.1339 7.51071 76.2232 7.74621 75.5785 8.38848C74.4853 9.4784 73.3902 10.5722 72.2329 11.5921C71.1824 12.5185 71.0601 13.5364 71.4057 14.8462C71.8018 16.3488 71.9902 17.9136 72.1688 19.4628C72.2193 19.9085 71.8135 20.037 71.3552 19.7976C69.9106 19.0463 68.4077 18.3924 67.0077 17.5652C65.9785 16.956 65.095 16.9229 64.064 17.5146C62.664 18.3184 61.2057 19.0191 59.7688 19.7567C59.5397 19.8735 59.3397 20.1246 59.0193 19.8132C58.7533 19.5524 58.7844 19.2838 58.864 19.023C59.3824 17.3044 59.3902 15.4905 59.8543 13.7563C60.0213 13.1296 59.6057 12.4698 59.0989 11.9755C57.8484 10.7552 56.596 9.53485 55.3649 8.29701C55.1824 8.11406 54.8581 7.94863 54.9941 7.58272C55.1145 7.26159 55.4251 7.35501 55.6581 7.30441C57.3242 6.94629 59.0077 6.70106 60.7067 6.55119C61.6115 6.4714 62.2504 5.96342 62.6523 5.1888C63.4484 3.65318 64.2154 2.10005 64.9727 0.544966C65.0931 0.301681 65.1591 0.0603416 65.53 0.00195312Z" fill="#FDCF12"/>
<path d="M31.2777 19.2118C31.6738 17.6625 31.7068 16.053 32.1592 14.5816C32.6622 12.9486 31.7903 12.1234 30.8466 11.2009C29.8233 10.2005 28.7806 9.21955 27.7573 8.21916C27.2253 7.70145 27.3689 7.45038 28.0816 7.30246C29.7495 6.95797 31.435 6.74583 33.1243 6.56288C34.3961 6.42469 35.0117 5.57417 35.4971 4.52707C36.1359 3.15299 36.7864 1.78475 37.4757 0.435979C37.7942 -0.186831 38.2 -0.145959 38.5631 0.556649C39.2447 1.87428 39.9223 3.19775 40.5185 4.55821C41.0796 5.84275 41.9146 6.48892 43.3845 6.62127C44.8097 6.74972 46.2699 6.85287 47.6602 7.29273C47.9165 7.37448 48.2913 7.21294 48.3961 7.60025C48.499 7.97199 48.2214 8.19581 47.9903 8.41768C46.8622 9.49787 45.7321 10.5761 44.602 11.6544C43.7146 12.5029 43.5049 13.4469 43.833 14.6769C44.2447 16.2184 44.433 17.8221 44.6427 19.4083C44.6835 19.7139 44.4757 20.1265 43.9029 19.819C42.435 19.0347 40.8913 18.3865 39.4563 17.5496C38.3049 16.8782 37.367 16.995 36.268 17.6723C34.9554 18.48 33.5709 19.1865 32.1398 19.7937C31.4272 20.0973 31.3126 19.7373 31.2777 19.2118Z" fill="#FDCF12"/>
<path d="M86.3514 19.1768C86.6019 18.4255 86.6271 17.5069 86.8485 16.6602C87.0989 15.7007 87.0582 14.7062 87.4038 13.7544C87.6349 13.1199 87.1455 12.4757 86.6698 12.0008C85.4854 10.8136 84.264 9.66334 83.0659 8.48974C82.8232 8.25229 82.4659 8.03041 82.5708 7.62753C82.6776 7.21492 83.0951 7.34532 83.3922 7.27915C84.9611 6.93271 86.5436 6.66412 88.1494 6.55708C89.563 6.46366 90.0951 5.41656 90.6232 4.34221C91.231 3.10437 91.8582 1.87821 92.4718 0.644271C92.6077 0.369845 92.6232 -0.0486061 93.0698 0.0214601C93.4116 0.075956 93.5494 0.406824 93.6892 0.685142C94.4679 2.2266 95.2679 3.75638 95.996 5.32119C96.3999 6.19118 97.1222 6.45198 97.9514 6.55513C99.6057 6.76338 101.262 6.95217 102.901 7.27915C103.573 7.41344 103.619 7.65478 103.229 8.16081C102.206 9.48234 100.86 10.4749 99.6717 11.6252C98.6717 12.5925 98.6543 13.6688 98.9028 14.8794C99.2057 16.3488 99.4873 17.8241 99.6096 19.3247C99.6679 20.0254 99.4096 20.0876 98.8387 19.7879C97.4251 19.0444 95.9455 18.4158 94.5844 17.5886C93.462 16.9074 92.5203 16.9522 91.4077 17.5867C90.0387 18.3652 88.6718 19.1515 87.2329 19.8152C86.4912 20.1596 86.3941 19.8988 86.3514 19.1768Z" fill="#FDCF12"/>
<path d="M114.911 13.77C114.93 12.8669 114.654 12.3492 114.186 11.8996C112.975 10.7338 111.777 9.55629 110.581 8.37879C110.379 8.18027 110.074 7.99343 110.144 7.67034C110.231 7.26552 110.641 7.31028 110.942 7.26357C112.507 7.02223 114.07 6.77311 115.641 6.58237C116.703 6.45392 117.419 5.97708 117.87 4.98447C118.509 3.57536 119.231 2.20129 119.93 0.819428C120.084 0.517755 120.15 0.0525931 120.588 0.0778948C120.998 0.10125 121.08 0.548895 121.233 0.856408C121.913 2.21102 122.608 3.56174 123.241 4.93776C123.705 5.94594 124.425 6.46949 125.54 6.5921C127.113 6.76532 128.674 7.03391 130.239 7.2733C130.515 7.31612 130.872 7.27136 130.979 7.61974C131.08 7.94866 130.808 8.15302 130.602 8.35154C129.421 9.50179 128.247 10.6579 127.049 11.7887C126.355 12.4426 126.087 13.1764 126.282 14.1359C126.588 15.652 126.827 17.1838 127.074 18.7136C127.134 19.0814 127.34 19.5368 126.996 19.8151C126.619 20.1207 126.274 19.7217 125.95 19.5563C124.571 18.8478 123.192 18.1355 121.831 17.392C120.99 16.9327 120.196 16.9191 119.35 17.3803C117.874 18.1822 116.379 18.949 114.885 19.7198C114.668 19.8327 114.437 20.0351 114.169 19.8541C113.864 19.6497 113.963 19.348 114.012 19.0619C114.326 17.2149 114.639 15.3718 114.911 13.77Z" fill="#777677"/>
</g>
<defs>
<clipPath id="clip0_1229_9783">
<rect width="131" height="20" fill="white"/>
</clipPath>
</defs>
</svg>
