<svg width="83" height="26" viewBox="0 0 83 26" fill="none" xmlns="http://www.w3.org/2000/svg">
<path d="M8.94867 0.373047L6.13834 25.1852H2.95826L0.147949 0.373047H3.03222L4.43737 19.6015V19.7494V19.9713C4.40039 20.0453 4.40039 20.1192 4.43737 20.2301C4.47435 20.3411 4.51132 20.3781 4.5483 20.3781C4.58528 20.3781 4.62225 20.3411 4.65923 20.2301C4.69621 20.1192 4.69621 20.0453 4.65923 19.9713C4.62225 19.9343 4.62225 19.9343 4.65923 19.8973C4.65923 19.8604 4.65923 19.8234 4.65923 19.7864V19.6385L6.0644 0.410024L8.94867 0.373047Z" fill="#C6C6C6"/>
<path d="M17.4906 22.9297C17.6755 22.8927 17.8234 22.7818 17.9344 22.6709C18.1192 22.486 18.2302 22.3381 18.3041 22.1902C18.3781 22.0422 18.4151 21.7834 18.4151 21.3766L18.4521 20.1194H21.0035V21.2657C20.9665 21.4506 20.9665 21.6355 20.9665 21.7834C20.9296 21.9313 20.9296 22.0792 20.9296 22.2641C20.9296 22.449 20.8926 22.5969 20.8556 22.7448C20.7817 23.0407 20.6707 23.3735 20.4858 23.6693C20.3009 23.9651 20.153 24.2239 19.9681 24.3719C19.8202 24.5198 19.5244 24.7416 19.1177 25.0005C18.7109 25.2593 18.1562 25.4072 17.4906 25.4072H15.3089C14.6064 25.4072 14.0887 25.2593 13.6819 25.0005C13.2751 24.7416 12.9793 24.5198 12.8314 24.3719C12.6835 24.2239 12.4986 23.9651 12.3137 23.6693C12.1288 23.3735 12.0179 23.0407 11.9439 22.7448C11.907 22.5969 11.87 22.449 11.833 22.2641C11.796 22.0792 11.796 21.9313 11.796 21.7834C11.7591 21.6355 11.7591 21.4506 11.796 21.2657V4.25591C11.7591 4.07102 11.7591 3.88613 11.796 3.73822C11.796 3.59031 11.796 3.4424 11.833 3.29448C11.87 3.14657 11.907 2.96168 11.9439 2.81377C12.0179 2.51795 12.1288 2.18515 12.3137 1.88932C12.4986 1.5935 12.6465 1.33466 12.8314 1.18675C12.9793 1.03884 13.2751 0.816968 13.6819 0.558123C14.0887 0.299278 14.6433 0.151367 15.3089 0.151367H17.3797C18.0823 0.151367 18.6 0.299278 19.0067 0.558123C19.4135 0.816968 19.7093 1.03884 19.8572 1.18675C20.0051 1.33466 20.19 1.5935 20.3749 1.88932C20.5598 2.18515 20.6707 2.51795 20.7447 2.81377C20.7816 2.96168 20.8186 3.14657 20.8186 3.29448C20.8186 3.4424 20.8186 3.62728 20.8556 3.73822C20.8556 3.88613 20.8556 4.07102 20.8926 4.25591V5.32827H18.3411V2.55493H15.8636C15.6787 2.5919 15.4938 2.62888 15.3089 2.66586C15.124 2.70284 15.0131 2.77679 14.9022 2.88773C14.7173 3.07262 14.6063 3.22053 14.5324 3.36844C14.4584 3.51635 14.4215 3.7752 14.4215 4.18195L14.3845 5.95689V19.7126L14.4215 21.4876C14.4584 21.8943 14.4954 22.1532 14.5324 22.3011C14.6063 22.449 14.7173 22.5969 14.9022 22.7818C15.0131 22.8927 15.198 22.9667 15.4199 23.0407C15.6417 23.0776 15.8636 23.1146 16.0485 23.1146H16.9729C17.1578 23.0037 17.3057 23.0037 17.4906 22.9297Z" fill="#C6C6C6"/>
<path d="M29.0645 22.9299C29.2494 22.8929 29.3973 22.7819 29.5082 22.671C29.6931 22.4861 29.804 22.3382 29.878 22.1903C29.952 22.0424 29.9889 21.7835 29.9889 21.3768L30.0259 20.1195H32.5774V21.2658C32.5404 21.4507 32.5404 21.6356 32.5404 21.7835C32.5404 21.9684 32.5404 22.1163 32.5404 22.3012C32.5404 22.4861 32.5034 22.634 32.4665 22.7819C32.3925 23.0778 32.2816 23.4106 32.0967 23.7064C31.9118 24.0022 31.7639 24.2611 31.579 24.409C31.4311 24.5569 31.1352 24.7787 30.7285 25.0376C30.3217 25.2964 29.7671 25.4443 29.1015 25.4443H26.9198C26.2172 25.4443 25.6995 25.2964 25.2928 25.0376C24.886 24.7787 24.5902 24.5569 24.4423 24.409C24.2943 24.2611 24.1095 24.0022 23.9246 23.7064C23.7397 23.4106 23.6288 23.0778 23.5548 22.7819C23.5178 22.634 23.4809 22.4861 23.4439 22.3012C23.4069 22.1163 23.4069 21.9684 23.4069 21.8205C23.3699 21.6726 23.3699 21.4877 23.4069 21.3028V4.29302C23.3699 4.10813 23.3699 3.92324 23.4069 3.77533C23.4069 3.62742 23.4069 3.4795 23.4439 3.33159C23.4809 3.18368 23.5178 2.99879 23.5548 2.85088C23.6288 2.55506 23.7397 2.22226 23.9246 1.92644C24.1095 1.63061 24.2574 1.37177 24.4423 1.22386C24.5902 1.07595 24.886 0.854077 25.2928 0.595232C25.6995 0.336387 26.2542 0.188477 26.9198 0.188477H28.9906C29.6931 0.188477 30.2108 0.336387 30.6176 0.595232C31.0243 0.854077 31.3201 1.07595 31.468 1.22386C31.616 1.37177 31.8009 1.63061 31.9857 1.92644C32.1706 2.22226 32.2816 2.55506 32.3555 2.85088C32.3925 2.99879 32.4295 3.18368 32.4295 3.33159C32.4295 3.4795 32.4295 3.6644 32.4665 3.77533C32.4665 3.92324 32.4665 4.10813 32.5034 4.29302V5.3284H29.952V2.55506H27.4744C27.2896 2.59204 27.1047 2.62902 26.9198 2.66599C26.7349 2.70297 26.624 2.77693 26.513 2.88786C26.3281 3.07275 26.2172 3.22066 26.1433 3.36857C26.0693 3.51648 26.0323 3.77533 26.0323 4.18209L25.9953 5.95702V19.7128L26.0323 21.4877C26.0693 21.8945 26.1063 22.1533 26.1433 22.3012C26.2172 22.4491 26.3281 22.5971 26.513 22.7819C26.624 22.8929 26.8088 22.9668 27.0307 23.0408C27.2526 23.0778 27.4744 23.1147 27.6593 23.1147H28.5838C28.7317 23.0038 28.9166 23.0038 29.0645 22.9299Z" fill="#C6C6C6"/>
<path d="M58.4621 22.9297C58.647 22.8927 58.7949 22.7818 58.9058 22.6709C59.0907 22.486 59.2016 22.3381 59.2756 22.1902C59.3495 22.0422 59.3865 21.7834 59.3865 21.3766L59.4235 20.1194H61.975V21.2657C61.938 21.4506 61.938 21.6355 61.938 21.7834C61.901 21.9313 61.901 22.0792 61.901 22.2641C61.901 22.449 61.864 22.5969 61.827 22.7448C61.7531 23.0407 61.6422 23.3735 61.4573 23.6693C61.2724 23.9651 61.1245 24.2239 60.9396 24.3719C60.7917 24.5198 60.4958 24.7416 60.0891 25.0005C59.6823 25.2593 59.1277 25.4072 58.4621 25.4072H56.2804C55.5778 25.4072 55.0601 25.2593 54.6533 25.0005C54.2466 24.7416 53.9508 24.5198 53.8029 24.3719C53.6549 24.2239 53.4701 23.9651 53.2852 23.6693C53.1003 23.3735 52.9893 23.0407 52.9154 22.7448C52.8784 22.5969 52.8414 22.449 52.8044 22.2641C52.7675 22.0792 52.7675 21.9313 52.7675 21.7834C52.7305 21.6355 52.7305 21.4506 52.7675 21.2657V4.25591C52.7305 4.07102 52.7305 3.88613 52.7675 3.73822C52.7675 3.59031 52.7675 3.4424 52.8044 3.29448C52.8414 3.14657 52.8784 2.96168 52.9154 2.81377C52.9893 2.51795 53.1003 2.18515 53.2852 1.88932C53.4701 1.5935 53.618 1.33466 53.8029 1.18675C53.9508 1.03884 54.2466 0.816968 54.6533 0.558123C55.0601 0.299278 55.6148 0.151367 56.2804 0.151367H58.3511C59.0537 0.151367 59.5714 0.299278 59.9782 0.558123C60.3849 0.816968 60.6807 1.03884 60.8286 1.18675C60.9766 1.33466 61.1614 1.5935 61.3463 1.88932C61.5312 2.18515 61.6422 2.51795 61.7161 2.81377C61.7531 2.96168 61.7531 3.10959 61.7531 3.29448C61.7531 3.4424 61.7531 3.62728 61.7901 3.73822C61.7901 3.88613 61.7901 4.07102 61.827 4.25591V5.32827H59.2756V2.55493H56.7981C56.6132 2.5919 56.4283 2.62888 56.2434 2.66586C56.0585 2.70284 55.9476 2.77679 55.8366 2.88773C55.6517 3.07262 55.5408 3.22053 55.4669 3.36844C55.3929 3.51635 55.3559 3.7752 55.3559 4.18195L55.3189 5.95689V19.7126L55.3559 21.4876C55.3929 21.8943 55.4299 22.1532 55.4669 22.3011C55.5408 22.449 55.6517 22.5969 55.8366 22.7818C55.9476 22.8927 56.1325 22.9667 56.3543 23.0407C56.5762 23.0776 56.7981 23.1146 56.9829 23.1146H57.9074C58.0923 23.0037 58.2772 23.0037 58.4621 22.9297Z" fill="#C6C6C6"/>
<path d="M64.1196 0.373047H66.6341V22.7446H72.1438V25.1852H64.1196V0.373047Z" fill="#C6C6C6"/>
<path d="M74.2886 0.373047H82.1279V2.77661H76.84V9.24773H80.279V11.6513H76.84V22.7816H82.4607V25.1852H74.2886V0.373047Z" fill="#C6C6C6"/>
<path d="M37.7545 2.11101C37.7545 3.07243 36.9779 3.84897 36.0165 3.84897C35.0551 3.84897 34.2786 3.07243 34.2786 2.11101C34.2786 1.14958 35.0551 0.373047 36.0165 0.373047C36.9779 0.373047 37.7545 1.14958 37.7545 2.11101Z" fill="#C6C6C6"/>
<path d="M36.0164 5.5132C35.5357 5.5132 35.0919 5.36529 34.7222 5.10645V25.1854H37.2736V5.10645C36.9038 5.36529 36.4971 5.5132 36.0164 5.5132Z" fill="#C6C6C6"/>
<path d="M46.3703 9.17378C46.3703 11.1336 44.4475 11.0596 44.4475 11.0596H42.5246V2.77661H44.8912C46.3333 2.77661 46.3333 4.10781 46.3333 4.10781L46.3703 9.17378ZM49.1067 23.3363V14.9793C49.1067 14.9793 48.8848 12.2799 46.3703 12.2799C46.3703 12.2799 48.9218 12.5018 48.9218 10.394V2.81358C48.9218 2.81358 48.9957 0.373047 45.8526 0.373047C42.7095 0.373047 39.9731 0.373047 39.9731 0.373047V25.1852H42.5246V14.0179H45.4828C45.4828 14.0179 46.5182 13.9069 46.5182 15.6819V23.817C46.5182 23.817 46.5182 25.2961 48.2192 25.2961H50.179V25.1482C50.216 25.1482 49.1067 24.5566 49.1067 23.3363Z" fill="#C6C6C6"/>
</svg>
