<svg width="103" height="23" viewBox="0 0 103 23" fill="none" xmlns="http://www.w3.org/2000/svg">
<path d="M95.0555 13.6028L90.8511 1.45192H94.3159L96.3719 8.07465L96.7158 10.0826L96.9525 8.07465L98.9677 1.45192H102.451L98.2171 13.6028V22.3555H95.0555V13.6028ZM58.4474 17.0381C58.5018 18.3635 58.1027 19.6679 57.3159 20.7359C56.7783 21.4513 56.0211 21.9708 55.1601 22.215C54.594 22.3768 54.0071 22.4541 53.4184 22.4442C52.3272 22.4865 51.2529 22.1653 50.3641 21.5309C49.6652 21.0026 49.1138 20.3036 48.7629 19.5008C48.3522 18.5659 48.119 17.5628 48.0751 16.5426L51.0629 16.3281C51.1961 17.541 51.5141 18.4174 52.0244 18.9646C52.1806 19.1548 52.3788 19.3061 52.6033 19.4068C52.8279 19.5076 53.0727 19.5549 53.3186 19.5452C53.6569 19.5344 53.9865 19.4352 54.2746 19.2575C54.5626 19.0797 54.7991 18.8296 54.9604 18.532C55.1969 18.1124 55.3073 17.6335 55.2784 17.1527C55.2784 16.2911 54.8828 15.4332 54.0988 14.5643L51.307 11.9684C50.4386 11.1785 49.6911 10.2653 49.0883 9.25795C48.624 8.35465 48.3855 7.35231 48.3931 6.3367C48.3931 4.43973 49.0292 3.00869 50.3012 2.03247C51.1545 1.42342 52.186 1.11515 53.2335 1.1561C54.2408 1.12594 55.2358 1.38241 56.103 1.89566C56.7355 2.29927 57.2528 2.85981 57.6043 3.52268C58.0005 4.26796 58.2361 5.08801 58.2958 5.92994L55.2895 6.47351C55.2453 5.7518 54.9879 5.05945 54.55 4.48411C54.3947 4.30967 54.2019 4.17276 53.986 4.08372C53.7701 3.99469 53.5369 3.95584 53.3038 3.97011C53.0357 3.96183 52.7708 4.02925 52.5392 4.16463C52.3077 4.30001 52.119 4.49787 51.9948 4.73555C51.7351 5.20157 51.6072 5.72954 51.625 6.26274C51.625 7.21307 52.0355 8.17819 52.8527 9.1655C53.279 9.65067 53.7508 10.094 54.2615 10.4893C55.0011 11.0994 55.4707 11.5284 55.7037 11.7687C56.4026 12.4467 57.006 13.2168 57.4971 14.0577C57.6776 14.374 57.8381 14.7013 57.9778 15.0376C58.2543 15.6704 58.4134 16.3483 58.4474 17.0381ZM62.245 4.57285H58.917V1.42234H68.7051V4.57285H65.3771V22.2113H62.2413L62.245 4.57285ZM74.5069 1.1561C75.1648 1.14809 75.8174 1.27523 76.4242 1.52966C77.031 1.78408 77.5791 2.16037 78.0346 2.63521C78.5023 3.09302 78.872 3.64119 79.1212 4.24637C79.3704 4.85155 79.4939 5.5011 79.4841 6.1555V17.4855C79.4841 18.8036 78.9605 20.0677 78.0285 20.9997C77.0965 21.9317 75.8324 22.4553 74.5143 22.4553C73.1962 22.4553 71.9321 21.9317 71.0001 20.9997C70.0681 20.0677 69.5445 18.8036 69.5445 17.4855V6.13702C69.5365 5.47908 69.6636 4.82651 69.918 4.21971C70.1724 3.61291 70.5487 3.0648 71.0236 2.60933C71.4753 2.14358 72.0171 1.77458 72.6159 1.52476C73.2147 1.27493 73.8581 1.1495 74.5069 1.1561ZM76.2153 6.05197C76.2168 5.81652 76.1715 5.58313 76.082 5.36533C75.9926 5.14752 75.8608 4.94964 75.6944 4.78315C75.5279 4.61667 75.33 4.48489 75.1122 4.39547C74.8944 4.30605 74.661 4.26077 74.4255 4.26224C74.1881 4.25836 73.9524 4.30255 73.7325 4.39215C73.5127 4.48176 73.3132 4.61492 73.1461 4.78363C72.9748 4.947 72.8391 5.14398 72.7475 5.36223C72.6559 5.58048 72.6103 5.81529 72.6136 6.05197V17.4522C72.6094 17.689 72.6546 17.9241 72.7463 18.1425C72.8379 18.3609 72.9741 18.5578 73.1461 18.7206C73.313 18.8898 73.5124 19.0235 73.7322 19.1137C73.9521 19.204 74.1879 19.2488 74.4255 19.2457C74.661 19.2462 74.8943 19.2001 75.1119 19.1101C75.3295 19.0201 75.5271 18.8879 75.6935 18.7212C75.8598 18.5546 75.9915 18.3566 76.0811 18.1388C76.1707 17.9211 76.2163 17.6877 76.2153 17.4522V6.05197ZM85.5596 1.42234C87.3099 1.42234 88.5942 1.90428 89.4127 2.86817C90.13 3.7088 90.4887 4.881 90.4887 6.38477V9.40216C90.498 10.1091 90.353 10.8095 90.0636 11.4545C89.7743 12.0996 89.3477 12.6737 88.8136 13.1369L91.1358 22.215H87.745L85.8443 14.3831H83.7514V22.215H80.6341V1.42234H85.5596ZM87.438 6.42174C87.438 5.21627 86.8402 4.61353 85.6446 4.61353H83.7514V11.2695H85.6446C85.8818 11.2755 86.1176 11.2323 86.3371 11.1426C86.5567 11.0528 86.7553 10.9185 86.9204 10.7482C87.0879 10.581 87.2204 10.382 87.3099 10.163C87.3995 9.94387 87.4443 9.70908 87.4417 9.47242L87.438 6.42174ZM4.29705 13.2922L0.0778809 1.14131H3.5464L5.60237 7.76404L5.93887 9.77194L6.17553 7.76404L8.19822 1.14131H11.6815L7.44757 13.2922V22.0412H4.29705V13.2922ZM16.9731 0.875068C17.6335 0.865022 18.2889 0.991177 18.8984 1.24566C19.5078 1.50015 20.0584 1.8775 20.5155 2.35418C20.9864 2.81247 21.3589 3.36204 21.61 3.96925C21.8612 4.57646 21.9858 5.22854 21.9762 5.88557V17.2895C21.9766 17.9467 21.8476 18.5975 21.5963 19.2047C21.3451 19.8119 20.9765 20.3637 20.5119 20.8283C20.0472 21.293 19.4955 21.6615 18.8882 21.9128C18.281 22.164 17.6302 22.2931 16.9731 22.2926C16.3143 22.3025 15.6606 22.1762 15.053 21.9217C14.4453 21.6672 13.8968 21.2899 13.4417 20.8135C12.9724 20.3536 12.6015 19.8031 12.3517 19.1954C12.1018 18.5876 11.9783 17.9354 11.9884 17.2784V5.88926C11.9789 5.22947 12.1053 4.57479 12.3598 3.96597C12.6143 3.35715 12.9913 2.80724 13.4676 2.35048C13.9208 1.87904 14.4654 1.50504 15.0682 1.25135C15.6709 0.997655 16.3191 0.869618 16.9731 0.875068ZM18.6888 5.80791C18.6903 5.5715 18.6448 5.33715 18.555 5.11844C18.4652 4.89974 18.3329 4.70104 18.1658 4.53387C17.9986 4.3667 17.7999 4.23438 17.5812 4.14459C17.3625 4.05479 17.1281 4.00932 16.8917 4.01079C16.6537 4.00662 16.4173 4.05067 16.1968 4.14027C15.9763 4.22988 15.7762 4.36319 15.6086 4.53218C15.4357 4.69608 15.2988 4.89411 15.2065 5.11372C15.1142 5.33333 15.0685 5.56973 15.0724 5.80791V17.2563C15.0685 17.495 15.1141 17.732 15.2064 17.9522C15.2987 18.1724 15.4356 18.3711 15.6086 18.5357C15.7762 18.7047 15.9763 18.838 16.1968 18.9276C16.4173 19.0172 16.6537 19.0612 16.8917 19.0571C17.1284 19.0586 17.3631 19.013 17.582 18.9229C17.801 18.8329 17.9999 18.7003 18.1671 18.5327C18.3343 18.3651 18.4665 18.166 18.5561 17.9469C18.6457 17.7277 18.6908 17.493 18.6888 17.2563V5.80791ZM29.3422 22.2741C28.688 22.2781 28.0396 22.1524 27.4343 21.9044C26.829 21.6565 26.2787 21.2911 25.8153 20.8294C25.3519 20.3678 24.9845 19.8189 24.7343 19.2145C24.4841 18.6101 24.3561 17.9622 24.3575 17.308V1.1561H27.4415V17.2747C27.4372 17.513 27.4826 17.7495 27.5749 17.9692C27.6673 18.1889 27.8044 18.3869 27.9777 18.5505C28.1454 18.7196 28.3454 18.8533 28.5658 18.9435C28.7863 19.0337 29.0226 19.0786 29.2608 19.0756C29.4975 19.077 29.7322 19.0314 29.9511 18.9414C30.1701 18.8514 30.3689 18.7188 30.5362 18.5512C30.7034 18.3836 30.8356 18.1845 30.9252 17.9653C31.0148 17.7462 31.0599 17.5115 31.0579 17.2747V1.1561H34.3416V17.308C34.3537 17.9676 34.2285 18.6226 33.9738 19.2311C33.7192 19.8397 33.3407 20.3887 32.8624 20.8431C32.4012 21.3049 31.8519 21.6695 31.2473 21.9153C30.6426 22.1611 29.9948 22.2831 29.3422 22.2741ZM41.6336 1.1561C43.3913 1.1561 44.6806 1.64051 45.5015 2.60933C46.2213 3.45242 46.5825 4.62955 46.5849 6.14071V9.1729C46.5943 9.88303 46.4482 10.5866 46.1569 11.2343C45.8656 11.882 45.4362 12.4582 44.8987 12.9225L47.232 22.0412H43.8264L41.9183 14.1871H39.818V22.0412H36.6675V1.1561H41.6336ZM43.5158 6.19248C43.5158 4.97961 42.9155 4.37317 41.7149 4.37317H39.818V11.0588H41.7149C41.9537 11.0632 42.1908 11.0177 42.4111 10.9254C42.6314 10.8331 42.83 10.6959 42.9944 10.5226C43.1631 10.3555 43.2962 10.156 43.3858 9.93617C43.4754 9.71629 43.5196 9.48056 43.5158 9.24315V6.19248Z" fill="#B7B7B7"/>
</svg>
