<svg width="103" height="23" viewBox="0 0 103 23" fill="none" xmlns="http://www.w3.org/2000/svg">
<path d="M95.4359 13.6028L91.2315 1.45192H94.6963L96.7523 8.07465L97.0962 10.0826L97.3328 8.07465L99.3481 1.45192H102.831L98.5975 13.6028V22.3555H95.4359V13.6028ZM58.8278 17.0381C58.8822 18.3635 58.4831 19.6679 57.6963 20.7359C57.1587 21.4513 56.4014 21.9708 55.5405 22.215C54.9744 22.3768 54.3875 22.4541 53.7988 22.4442C52.7076 22.4865 51.6333 22.1653 50.7444 21.5309C50.0455 21.0026 49.4942 20.3036 49.1433 19.5008C48.7326 18.5659 48.4994 17.5628 48.4555 16.5426L51.4433 16.3281C51.5764 17.541 51.8944 18.4174 52.4047 18.9646C52.561 19.1548 52.7592 19.3061 52.9837 19.4068C53.2082 19.5076 53.4531 19.5549 53.699 19.5452C54.0373 19.5344 54.3669 19.4352 54.6549 19.2575C54.943 19.0797 55.1795 18.8296 55.3408 18.532C55.5773 18.1124 55.6877 17.6335 55.6588 17.1527C55.6588 16.2911 55.2631 15.4332 54.4792 14.5643L51.6874 11.9684C50.819 11.1785 50.0715 10.2653 49.4687 9.25795C49.0044 8.35465 48.7658 7.35231 48.7735 6.3367C48.7735 4.43973 49.4095 3.00869 50.6816 2.03247C51.5349 1.42342 52.5663 1.11515 53.6139 1.1561C54.6211 1.12594 55.6162 1.38241 56.4834 1.89566C57.1159 2.29927 57.6331 2.85981 57.9847 3.52268C58.3809 4.26796 58.6165 5.08801 58.6762 5.92994L55.6699 6.47351C55.6257 5.7518 55.3683 5.05945 54.9303 4.48411C54.7751 4.30967 54.5823 4.17276 54.3664 4.08372C54.1505 3.99469 53.9172 3.95584 53.6842 3.97011C53.4161 3.96183 53.1511 4.02925 52.9196 4.16463C52.6881 4.30001 52.4994 4.49787 52.3752 4.73555C52.1154 5.20157 51.9876 5.72954 52.0054 6.26274C52.0054 7.21307 52.4158 8.17819 53.233 9.1655C53.6594 9.65067 54.1312 10.094 54.6419 10.4893C55.3815 11.0994 55.8511 11.5284 56.084 11.7687C56.783 12.4467 57.3863 13.2168 57.8775 14.0577C58.0579 14.374 58.2185 14.7013 58.3582 15.0376C58.6346 15.6704 58.7938 16.3483 58.8278 17.0381ZM62.6254 4.57285H59.2974V1.42234H69.0854V4.57285H65.7574V22.2113H62.6217L62.6254 4.57285ZM74.8873 1.1561C75.5452 1.14809 76.1978 1.27523 76.8046 1.52966C77.4114 1.78408 77.9595 2.16037 78.415 2.63521C78.8827 3.09302 79.2524 3.64119 79.5015 4.24637C79.7507 4.85155 79.8742 5.5011 79.8645 6.1555V17.4855C79.8645 18.8036 79.3409 20.0677 78.4089 20.9997C77.4768 21.9317 76.2127 22.4553 74.8947 22.4553C73.5766 22.4553 72.3125 21.9317 71.3805 20.9997C70.4484 20.0677 69.9248 18.8036 69.9248 17.4855V6.13702C69.9168 5.47908 70.044 4.82651 70.2984 4.21971C70.5528 3.61291 70.9291 3.0648 71.404 2.60933C71.8557 2.14358 72.3975 1.77458 72.9963 1.52476C73.5951 1.27493 74.2385 1.1495 74.8873 1.1561ZM76.5956 6.05197C76.5971 5.81652 76.5518 5.58313 76.4624 5.36533C76.373 5.14752 76.2412 4.94964 76.0747 4.78315C75.9082 4.61667 75.7104 4.48489 75.4926 4.39547C75.2747 4.30605 75.0414 4.26077 74.8059 4.26224C74.5685 4.25836 74.3328 4.30255 74.1129 4.39215C73.893 4.48176 73.6936 4.61492 73.5265 4.78363C73.3552 4.947 73.2195 5.14398 73.1279 5.36223C73.0363 5.58048 72.9907 5.81529 72.994 6.05197V17.4522C72.9898 17.689 73.035 17.9241 73.1266 18.1425C73.2183 18.3609 73.3545 18.5578 73.5265 18.7206C73.6934 18.8898 73.8927 19.0235 74.1126 19.1137C74.3325 19.204 74.5683 19.2488 74.8059 19.2457C75.0414 19.2462 75.2747 19.2001 75.4922 19.1101C75.7099 19.0201 75.9075 18.8879 76.0738 18.7212C76.2402 18.5546 76.3719 18.3566 76.4615 18.1388C76.551 17.9211 76.5966 17.6877 76.5956 17.4522V6.05197ZM85.9399 1.42234C87.6902 1.42234 88.9746 1.90428 89.793 2.86817C90.5104 3.7088 90.8691 4.881 90.8691 6.38477V9.40216C90.8784 10.1091 90.7333 10.8095 90.444 11.4545C90.1547 12.0996 89.7281 12.6737 89.194 13.1369L91.5162 22.215H88.1253L86.2247 14.3831H84.1317V22.215H81.0145V1.42234H85.9399ZM87.8184 6.42174C87.8184 5.21627 87.2206 4.61353 86.025 4.61353H84.1317V11.2695H86.025C86.2621 11.2755 86.4979 11.2323 86.7175 11.1426C86.9371 11.0528 87.1357 10.9185 87.3007 10.7482C87.4683 10.581 87.6008 10.382 87.6903 10.163C87.7798 9.94387 87.8247 9.70908 87.8221 9.47242L87.8184 6.42174ZM4.67742 13.2922L0.458252 1.14131H3.92677L5.98274 7.76404L6.31924 9.77194L6.5559 7.76404L8.57859 1.14131H12.0619L7.82794 13.2922V22.0412H4.67742V13.2922ZM17.3534 0.875068C18.0138 0.865022 18.6692 0.991177 19.2787 1.24566C19.8882 1.50015 20.4387 1.8775 20.8959 2.35418C21.3668 2.81247 21.7392 3.36204 21.9904 3.96925C22.2415 4.57646 22.3661 5.22854 22.3565 5.88557V17.2895C22.357 17.9467 22.2279 18.5975 21.9767 19.2047C21.7254 19.8119 21.3569 20.3637 20.8922 20.8283C20.4276 21.293 19.8758 21.6615 19.2686 21.9128C18.6614 22.164 18.0106 22.2931 17.3534 22.2926C16.6947 22.3025 16.041 22.1762 15.4334 21.9217C14.8257 21.6672 14.2771 21.2899 13.822 20.8135C13.3527 20.3536 12.9819 19.8031 12.732 19.1954C12.4822 18.5876 12.3586 17.9354 12.3688 17.2784V5.88926C12.3593 5.22947 12.4857 4.57479 12.7402 3.96597C12.9946 3.35715 13.3717 2.80724 13.8479 2.35048C14.3012 1.87904 14.8458 1.50504 15.4486 1.25135C16.0513 0.997655 16.6995 0.869618 17.3534 0.875068ZM19.0692 5.80791C19.0707 5.5715 19.0252 5.33715 18.9354 5.11844C18.8456 4.89974 18.7133 4.70104 18.5461 4.53387C18.3789 4.3667 18.1802 4.23438 17.9615 4.14459C17.7428 4.05479 17.5085 4.00932 17.2721 4.01079C17.0341 4.00662 16.7977 4.05067 16.5772 4.14027C16.3567 4.22988 16.1566 4.36319 15.9889 4.53218C15.8161 4.69608 15.6792 4.89411 15.5869 5.11372C15.4946 5.33333 15.4489 5.56973 15.4528 5.80791V17.2563C15.4488 17.495 15.4944 17.732 15.5867 17.9522C15.679 18.1724 15.816 18.3711 15.9889 18.5357C16.1566 18.7047 16.3567 18.838 16.5772 18.9276C16.7977 19.0172 17.0341 19.0612 17.2721 19.0571C17.5088 19.0586 17.7435 19.013 17.9624 18.9229C18.1814 18.8329 18.3802 18.7003 18.5474 18.5327C18.7147 18.3651 18.8469 18.166 18.9365 17.9469C19.0261 17.7277 19.0712 17.493 19.0692 17.2563V5.80791ZM29.7225 22.2741C29.0684 22.2781 28.42 22.1524 27.8147 21.9044C27.2093 21.6565 26.6591 21.2911 26.1957 20.8294C25.7323 20.3678 25.3649 19.8189 25.1147 19.2145C24.8645 18.6101 24.7364 17.9622 24.7379 17.308V1.1561H27.8219V17.2747C27.8175 17.513 27.863 17.7495 27.9553 17.9692C28.0476 18.1889 28.1848 18.3869 28.358 18.5505C28.5257 18.7196 28.7258 18.8533 28.9462 18.9435C29.1667 19.0337 29.403 19.0786 29.6412 19.0756C29.8779 19.077 30.1126 19.0314 30.3315 18.9414C30.5504 18.8514 30.7493 18.7188 30.9165 18.5512C31.0838 18.3836 31.216 18.1845 31.3056 17.9653C31.3951 17.7462 31.4403 17.5115 31.4383 17.2747V1.1561H34.7219V17.308C34.7341 17.9676 34.6089 18.6226 34.3542 19.2311C34.0996 19.8397 33.7211 20.3887 33.2428 20.8431C32.7815 21.3049 32.2323 21.6695 31.6276 21.9153C31.023 22.1611 30.3752 22.2831 29.7225 22.2741ZM42.014 1.1561C43.7716 1.1561 45.0609 1.64051 45.8818 2.60933C46.6017 3.45242 46.9628 4.62955 46.9653 6.14071V9.1729C46.9746 9.88303 46.8285 10.5866 46.5373 11.2343C46.246 11.882 45.8166 12.4582 45.2791 12.9225L47.6124 22.0412H44.2067L42.2987 14.1871H40.1983V22.0412H37.0478V1.1561H42.014ZM43.8961 6.19248C43.8961 4.97961 43.2959 4.37317 42.0953 4.37317H40.1983V11.0588H42.0953C42.3341 11.0632 42.5712 11.0177 42.7915 10.9254C43.0118 10.8331 43.2104 10.6959 43.3747 10.5226C43.5434 10.3555 43.6766 10.156 43.7662 9.93617C43.8558 9.71629 43.9 9.48056 43.8961 9.24315V6.19248Z" fill="#D14B4B"/>
</svg>
